<?xml version="1.0" encoding="UTF-8"?><svg id="Layer_1" xmlns="http://www.w3.org/2000/svg" width="592.28" height="1016" viewBox="0 0 592.28 1016"><defs><style>.cls-1{fill:#aa1000;}.cls-1,.cls-2{stroke-width:0px;}.cls-2{fill:#fff;}</style></defs><path class="cls-1" d="m513.6,491.43C382.88,269.33,318.85,129.04,300.54,3.8c-.74-5.06-8.06-5.06-8.8,0-18.31,125.37-82.33,266.29-213.06,488.41-180.81,307.21-25.48,523.8,217.57,523.8h0c242.92-.14,398.1-217.46,217.34-524.57Z"/><path class="cls-2" d="m105.12,736.15c-.07.15-.15.4-.22.77-.07.37-.11.74-.11,1.1,0,1.54,1.12,2.61,3.36,3.2,2.24.59,5.24.88,8.99.88,5.44,0,10.77-.46,15.99-1.38,5.22-.92,9.67-2.15,13.34-3.69,4.41,1.18,8.12,2.96,11.14,5.35,3.01,2.39,5.47,5.09,7.39,8.1,1.91,3.01,3.29,6.25,4.13,9.7.84,3.46,1.27,6.87,1.27,10.25,0,6.98-1.54,13.16-4.63,18.52-3.09,5.37-7.41,9.87-12.96,13.51-5.55,3.64-12.18,6.39-19.9,8.27-7.72,1.87-16.17,2.81-25.36,2.81s-17.22-.87-24.09-2.59c-6.87-1.73-12.61-4.08-17.2-7.06-4.59-2.98-8.03-6.43-10.31-10.36-2.28-3.93-3.42-8.14-3.42-12.62,0-1.98.24-3.88.72-5.68.48-1.8,1.1-3.47,1.88-5.02.77-1.54,1.65-2.88,2.65-4.02.99-1.14,2.04-2,3.14-2.59,3.45,2.94,8.71,5.4,15.77,7.39,7.06,1.99,15.62,2.98,25.69,2.98,5.59,0,9.44-.28,11.58-.83,2.13-.55,3.2-1.6,3.2-3.14,0-.51-.07-.94-.22-1.27-.15-.33-.29-.64-.44-.94-1.76.37-3.97.66-6.62.88-2.65.22-5.04.33-7.17.33-6.25,0-12.28-.46-18.08-1.38-5.81-.92-10.93-2.48-15.38-4.69-4.45-2.21-8.01-5.09-10.7-8.66-2.68-3.56-4.02-7.99-4.02-13.29,0-3.6.73-7.07,2.21-10.42,1.47-3.34,3.79-5.86,6.95-7.55-1.69-1.03-3.4-2.41-5.13-4.13-1.73-1.73-3.29-3.84-4.69-6.34-1.4-2.5-2.54-5.37-3.42-8.6-.88-3.23-1.32-6.91-1.32-11.03,0-7.2,1.43-13.63,4.3-19.3,2.87-5.66,6.84-10.44,11.91-14.33,5.07-3.9,11.1-6.87,18.08-8.93,6.98-2.06,14.59-3.09,22.82-3.09,4.7,0,9.08.42,13.12,1.27,4.04.85,7.53,1.78,10.47,2.81v-7.72c1.69-.66,3.99-1.25,6.89-1.76,2.9-.51,6.08-.77,9.54-.77s6.65.26,9.59.77c2.94.51,5.48,1.47,7.61,2.87,2.13,1.4,3.8,3.35,5.02,5.84,1.21,2.5,1.82,5.73,1.82,9.7,0,1.84-.11,3.62-.33,5.35-.22,1.73-.62,3.44-1.21,5.13-.81,2.43-1.95,4.85-3.42,7.28.96,2.35,1.67,4.92,2.15,7.72.48,2.79.72,6.25.72,10.36,0,6.69-1.25,12.59-3.75,17.7-2.5,5.11-5.99,9.39-10.47,12.85-4.48,3.46-9.85,6.06-16.1,7.83-6.25,1.76-13.16,2.65-20.73,2.65-2.35,0-4.67-.11-6.95-.33-2.28-.22-3.97-.44-5.07-.66Zm7.94-43.66c0-1.25-.24-2.22-.72-2.92-.48-.7-1.23-1.05-2.26-1.05-.74,0-1.38.24-1.93.72-.55.48-.83,1.34-.83,2.59v11.36c.66.51,1.4.77,2.21.77,1.62,0,2.61-.5,2.98-1.49.37-.99.55-2.55.55-4.69v-5.29Z"/><path class="cls-2" d="m289.36,715.97c0,5.07.55,9.43,1.65,13.07s3.2,6.41,6.28,8.32c.07.59.11,1.31.11,2.15v1.93c0,5.59-.88,10.4-2.65,14.44-1.76,4.04-4.06,7.37-6.89,9.98-2.83,2.61-6.05,4.54-9.65,5.79-3.6,1.25-7.28,1.87-11.03,1.87-2.65,0-5.24-.29-7.77-.88-2.54-.59-4.92-1.51-7.17-2.76-2.24-1.25-4.26-2.83-6.06-4.74-1.8-1.91-3.22-4.15-4.25-6.73-2.5,0-3.75,1.21-3.75,3.64,0,1.03.42,2.26,1.27,3.69.84,1.43,2,2.74,3.47,3.92-2.13,1.25-4.74,2.21-7.83,2.87-3.09.66-6.1.99-9.04.99-4.34,0-8.67-.48-13.01-1.43-4.34-.96-8.49-2.48-12.46-4.58-3.97-2.09-7.68-4.78-11.14-8.05-3.46-3.27-6.45-7.2-8.99-11.8-2.54-4.59-4.54-9.87-6.01-15.82-1.47-5.95-2.21-12.72-2.21-20.29,0-9.63,1.43-18.19,4.3-25.69,2.87-7.5,6.82-13.82,11.85-18.96,5.03-5.14,10.99-9.06,17.86-11.74,6.87-2.68,14.28-4.02,22.22-4.02,5.58,0,10.47.55,14.66,1.65s7.75,2.39,10.7,3.86c.37-.37.66-.79.88-1.27.22-.48.33-.9.33-1.27,0-1.17-.75-2.24-2.26-3.2-1.51-.95-3.42-1.78-5.73-2.48-2.32-.7-4.87-1.25-7.66-1.65-2.79-.4-5.44-.61-7.94-.61,0-1.4-.05-2.92-.17-4.58-.11-1.65-.29-3.27-.55-4.85-.26-1.58-.57-3.12-.94-4.63-.37-1.51-.81-2.81-1.32-3.91,1.69-1.99,3.53-3.82,5.51-5.51,1.98-1.69,4.21-3.14,6.67-4.35,2.46-1.21,5.22-2.17,8.27-2.87,3.05-.7,6.52-1.05,10.42-1.05,4.26,0,8.23.63,11.91,1.88,3.67,1.25,6.85,3.11,9.54,5.57,2.68,2.46,4.78,5.48,6.29,9.04,1.5,3.57,2.26,7.66,2.26,12.29v72.77Zm-53.92-5.07c0-2.43.04-4.5.11-6.23.07-1.73.15-3.23.22-4.52.07-1.29.17-2.44.28-3.47s.24-2.13.39-3.31c-.29-.29-.64-.55-1.05-.77-.4-.22-.94-.33-1.6-.33-.74,0-1.38.22-1.93.66-.55.44-1.01,1.4-1.38,2.87-.37,1.47-.61,3.35-.72,5.62-.11,2.28-.17,5.07-.17,8.38v11.25c0,1.91.24,3.29.72,4.13.48.85,1.41,1.27,2.81,1.27,1.03,0,1.8-.26,2.32-.77v-14.78Z"/><path class="cls-2" d="m360.37,645.96c-3.01.15-5.99.46-8.93.94-2.94.48-5.57,1.07-7.88,1.76-2.32.7-4.21,1.49-5.68,2.37-1.47.88-2.21,1.87-2.21,2.98,0,.44.15.94.44,1.49.29.55.73,1.01,1.32,1.38,3.01-1.47,6.67-2.83,10.97-4.08,4.3-1.25,9.21-1.87,14.72-1.87,8.01,0,15.38,1.43,22.11,4.3,6.73,2.87,12.55,6.95,17.48,12.24,4.92,5.29,8.77,11.63,11.52,19.02,2.76,7.39,4.13,15.6,4.13,24.64,0,11.32-1.67,21-5.02,29.05-3.35,8.05-7.94,14.65-13.78,19.79-5.84,5.15-12.75,8.93-20.73,11.36-7.98,2.43-16.59,3.64-25.86,3.64-3.75,0-7.59-.18-11.52-.55-3.93-.37-7.79-.98-11.58-1.82-3.79-.85-7.35-1.97-10.7-3.36-3.35-1.4-6.27-3.12-8.77-5.18-2.5-2.06-4.48-4.46-5.95-7.22-1.47-2.76-2.21-5.93-2.21-9.54v-125.81c3.38-1.98,7.55-3.66,12.51-5.02,4.96-1.36,10.05-2.04,15.27-2.04,3.82,0,7.55.41,11.19,1.21,3.64.81,6.87,2.08,9.7,3.8,2.83,1.73,5.11,3.97,6.84,6.73,1.73,2.76,2.59,6.08,2.59,9.98v9.81Zm-3.42,62.96c0,2.43-.04,4.5-.11,6.23-.07,1.73-.15,3.24-.22,4.52-.07,1.29-.18,2.45-.33,3.47-.15,1.03-.26,2.13-.33,3.31.29.29.64.55,1.05.77.4.22.94.33,1.6.33.73,0,1.38-.22,1.93-.66.55-.44,1.01-1.39,1.38-2.87.37-1.47.61-3.34.72-5.62.11-2.28.17-5.07.17-8.38v-11.25c0-1.91-.24-3.29-.72-4.13-.48-.84-1.42-1.27-2.81-1.27-1.03,0-1.8.26-2.32.77v14.77Z"/><path class="cls-2" d="m478.45,736.15c-.07.15-.15.4-.22.77-.07.37-.11.74-.11,1.1,0,1.54,1.12,2.61,3.36,3.2,2.24.59,5.24.88,8.99.88,5.44,0,10.77-.46,15.99-1.38,5.22-.92,9.67-2.15,13.34-3.69,4.41,1.18,8.12,2.96,11.14,5.35,3.01,2.39,5.47,5.09,7.39,8.1,1.91,3.01,3.29,6.25,4.13,9.7.84,3.46,1.27,6.87,1.27,10.25,0,6.98-1.54,13.16-4.63,18.52-3.09,5.37-7.41,9.87-12.96,13.51-5.55,3.64-12.18,6.39-19.9,8.27-7.72,1.87-16.17,2.81-25.36,2.81s-17.22-.87-24.09-2.59c-6.87-1.73-12.61-4.08-17.2-7.06-4.59-2.98-8.03-6.43-10.31-10.36-2.28-3.93-3.42-8.14-3.42-12.62,0-1.98.24-3.88.72-5.68.48-1.8,1.1-3.47,1.88-5.02.77-1.54,1.65-2.88,2.65-4.02.99-1.14,2.04-2,3.14-2.59,3.45,2.94,8.71,5.4,15.77,7.39,7.06,1.99,15.62,2.98,25.69,2.98,5.59,0,9.44-.28,11.58-.83,2.13-.55,3.2-1.6,3.2-3.14,0-.51-.07-.94-.22-1.27-.15-.33-.29-.64-.44-.94-1.76.37-3.97.66-6.62.88-2.65.22-5.04.33-7.17.33-6.25,0-12.28-.46-18.08-1.38-5.81-.92-10.93-2.48-15.38-4.69-4.45-2.21-8.01-5.09-10.7-8.66-2.68-3.56-4.02-7.99-4.02-13.29,0-3.6.73-7.07,2.21-10.42,1.47-3.34,3.79-5.86,6.95-7.55-1.69-1.03-3.4-2.41-5.13-4.13-1.73-1.73-3.29-3.84-4.69-6.34-1.4-2.5-2.54-5.37-3.42-8.6-.88-3.23-1.32-6.91-1.32-11.03,0-7.2,1.43-13.63,4.3-19.3,2.87-5.66,6.84-10.44,11.91-14.33,5.07-3.9,11.1-6.87,18.08-8.93,6.98-2.06,14.59-3.09,22.82-3.09,4.7,0,9.08.42,13.12,1.27,4.04.85,7.53,1.78,10.47,2.81v-7.72c1.69-.66,3.99-1.25,6.89-1.76,2.9-.51,6.08-.77,9.54-.77s6.65.26,9.59.77c2.94.51,5.48,1.47,7.61,2.87,2.13,1.4,3.8,3.35,5.02,5.84,1.21,2.5,1.82,5.73,1.82,9.7,0,1.84-.11,3.62-.33,5.35-.22,1.73-.62,3.44-1.21,5.13-.81,2.43-1.95,4.85-3.42,7.28.96,2.35,1.67,4.92,2.15,7.72.48,2.79.72,6.25.72,10.36,0,6.69-1.25,12.59-3.75,17.7-2.5,5.11-5.99,9.39-10.47,12.85-4.48,3.46-9.85,6.06-16.1,7.83-6.25,1.76-13.16,2.65-20.73,2.65-2.35,0-4.67-.11-6.95-.33-2.28-.22-3.97-.44-5.07-.66Zm7.94-43.66c0-1.25-.24-2.22-.72-2.92-.48-.7-1.23-1.05-2.26-1.05-.74,0-1.38.24-1.93.72-.55.48-.83,1.34-.83,2.59v11.36c.66.51,1.4.77,2.21.77,1.62,0,2.61-.5,2.98-1.49.37-.99.55-2.55.55-4.69v-5.29Z"/></svg>